<?xml version="1.0" standalone="no"?>
<!DOCTYPE svg PUBLIC "-//W3C//DTD SVG 20010904//EN"
 "http://www.w3.org/TR/2001/REC-SVG-20010904/DTD/svg10.dtd">
<svg version="1.0" xmlns="http://www.w3.org/2000/svg"
 width="1280.000000pt" height="1096.000000pt" viewBox="0 0 1280.000000 1096.000000"
 preserveAspectRatio="xMidYMid meet">
<metadata>
Created by potrace 1.15, written by Peter Selinger 2001-2017
</metadata>
<g transform="translate(0.000000,1096.000000) scale(0.100000,-0.100000)"
fill="#000000" stroke="none">
<path d="M3105 10943 c-28 -10 -73 -31 -100 -47 -69 -40 -201 -178 -275 -288
-112 -168 -233 -438 -306 -682 l-29 -98 -805 6 c-443 3 -982 9 -1197 12 l-393
6 0 -3694 0 -3695 983 -1 c1194 -2 2507 -13 2507 -21 0 -4 11 -70 25 -146 35
-200 111 -704 131 -875 26 -215 24 -441 -4 -555 -92 -368 -394 -611 -782 -632
-251 -13 -458 92 -508 257 -26 89 -26 90 15 90 121 1 269 62 367 152 114 104
173 227 183 378 15 245 -130 467 -365 557 -90 35 -247 43 -342 18 -118 -30
-187 -77 -361 -241 -106 -99 -165 -272 -176 -509 -6 -132 7 -209 51 -308 123
-279 467 -514 876 -598 158 -32 401 -33 537 -1 420 97 683 388 760 840 25 148
23 427 -5 627 -27 191 -91 580 -131 795 -16 85 -28 156 -26 158 3 3 1352 -3
6095 -28 1026 -6 2087 -10 2358 -10 l492 0 0 44 0 44 -572 6 c-580 6 -3988 22
-6708 31 -817 3 -1531 8 -1587 11 l-101 6 -12 64 c-7 36 -11 66 -9 68 2 2 56
28 119 59 313 151 545 377 694 675 108 214 161 426 173 691 l6 144 1386 -7
c1888 -9 5058 -24 5881 -28 l675 -3 3 46 3 46 -1048 7 c-576 3 -2092 11 -3368
16 -1276 5 -2595 13 -2932 16 l-612 6 -11 72 c-105 651 -521 1124 -1074 1221
-102 17 -282 20 -388 5 -40 -6 -82 -12 -92 -13 -17 -2 -24 22 -67 228 -26 127
-45 232 -41 235 4 3 646 2 1427 -1 781 -4 2423 -12 3650 -18 1227 -6 2780 -14
3453 -17 l1222 -7 0 45 0 46 -382 6 c-211 3 -1488 10 -2838 16 -3485 15 -6554
31 -6558 35 -2 1 -25 114 -51 251 l-49 249 97 105 c217 236 335 391 461 604
65 110 182 350 212 434 l23 63 820 -6 c1048 -8 4380 -23 6465 -30 888 -3 1645
-8 1683 -10 l67 -5 0 49 0 49 -1042 6 c-964 6 -2899 16 -6516 32 -1314 6
-1442 8 -1437 23 126 410 173 788 161 1299 -3 158 -9 316 -12 351 l-7 63 939
-6 c517 -4 1841 -11 2944 -16 1103 -5 2650 -13 3438 -16 l1432 -7 0 45 0 46
-572 6 c-315 3 -1720 11 -3123 17 -1402 6 -3117 14 -3810 18 l-1259 6 -36 175
c-44 214 -69 303 -126 445 -127 325 -285 500 -459 512 -41 2 -76 -2 -110 -14z
m313 -979 c47 -23 77 -55 116 -121 6 -10 -46 -13 -246 -13 l-253 1 45 40 c83
74 174 117 251 118 19 1 59 -11 87 -25z m-1049 -230 c2 -2 -3 -41 -12 -86 -81
-415 -73 -701 38 -1402 19 -120 35 -222 35 -227 0 -11 -577 -12 -1422 -2
l-608 6 0 857 c0 471 2 859 4 861 5 5 1960 -1 1965 -7z m1214 -44 c5 -19 9
-118 10 -220 0 -154 -3 -202 -21 -286 -71 -333 -242 -651 -565 -1051 l-99
-123 -133 0 -132 0 -17 143 c-53 455 27 980 205 1357 28 58 67 131 87 163 l37
57 310 -2 309 -3 9 -35z m-1139 -1781 c4 -3 19 -80 35 -170 l29 -164 -182
-190 c-532 -554 -747 -800 -938 -1071 l-73 -103 -457 -1 -458 0 0 856 0 856
1019 -4 c561 -1 1022 -6 1025 -9z m322 -58 c-31 -32 -63 -66 -70 -76 -12 -17
-15 -11 -25 47 -6 35 -11 70 -11 76 0 8 26 12 81 12 l81 0 -56 -59z m-35
-1468 c15 -81 28 -156 29 -165 0 -17 -17 -18 -215 -18 -118 0 -215 3 -214 8 1
9 363 330 368 326 1 -1 16 -69 32 -151z m-1760 -270 l277 -6 -41 -66 c-149
-243 -278 -570 -329 -836 -36 -190 -37 -564 -1 -797 l6 -38 -242 0 -241 0 0
875 0 875 148 0 c81 0 271 -3 423 -7z m1865 -273 c29 -146 51 -266 50 -268 -2
-1 -45 -22 -95 -47 -181 -88 -341 -208 -460 -346 -194 -225 -306 -475 -327
-736 l-7 -83 -341 2 -341 3 3 115 c8 290 69 537 193 781 119 233 243 394 512
662 l188 187 287 -2 287 -3 51 -265z m566 -914 c274 -54 483 -219 627 -495
l42 -81 -360 0 c-199 0 -361 2 -361 4 0 2 -27 133 -60 291 -33 158 -60 289
-60 291 0 9 105 3 172 -10z m-377 -48 c4 -18 28 -141 54 -273 26 -132 47 -242
45 -245 -1 -3 -146 -4 -322 -2 l-321 3 14 40 c41 115 99 204 200 305 89 90
111 107 205 153 58 28 108 51 112 51 4 0 10 -15 13 -32z m-2095 -723 c82 -317
220 -611 400 -850 316 -420 752 -672 1280 -740 106 -13 53 -14 -675 -10 -434
3 -958 5 -1162 5 l-373 0 0 855 0 855 251 -2 251 -3 28 -110z m1082 51 c19
-153 94 -333 196 -472 122 -165 328 -333 553 -449 48 -25 90 -45 92 -45 3 0
15 13 26 29 l21 29 -81 78 c-133 130 -246 291 -303 435 -50 127 -75 286 -62
393 l7 56 343 0 343 0 26 -132 c238 -1231 244 -1267 226 -1278 -21 -14 -172
-47 -266 -60 -103 -14 -336 -14 -428 -1 -365 53 -689 203 -926 429 -264 251
-413 574 -455 985 l-6 67 343 -2 344 -3 7 -59z m2104 4 c51 -172 57 -443 14
-610 -50 -189 -140 -350 -270 -480 -66 -66 -216 -179 -224 -169 -2 2 -24 112
-50 244 -48 244 -203 1002 -213 1043 l-5 22 367 -2 368 -3 13 -45z m-656
-1607 c0 -5 3 -18 6 -30 l6 -23 -218 1 c-188 2 -206 3 -127 10 93 8 274 37
282 45 7 7 51 4 51 -3z"/>
</g>
</svg>
